<svg xmlns="http://www.w3.org/2000/svg" aria-hidden="true" style="position:absolute;width:0;height:0;overflow:hidden"><defs><symbol id="search" viewBox="0 0 32 32"><path d="m28 25.333-6.872-6.872a9.337 9.337 0 0 0-1.901-12.366 9.337 9.337 0 0 0-12.495.636 9.332 9.332 0 0 0 11.73 14.396l6.872 6.872 2.667-2.667zm-21.333-12c0-3.676 2.991-6.667 6.667-6.667s6.667 2.991 6.667 6.667c0 3.676-2.991 6.667-6.667 6.667s-6.667-2.991-6.667-6.667z" style="fill:var(--color1)"/></symbol><symbol id="shop" viewBox="0 0 32 32"><path d="M29.096 9.908A1.335 1.335 0 0 0 28 9.334H9.777L8.238 5.641a2.659 2.659 0 0 0-2.462-1.64H2.665v2.667h3.111l6.325 15.18a1.33 1.33 0 0 0 1.23.82h10.667c.556 0 1.053-.345 1.249-.864l4-10.667a1.325 1.325 0 0 0-.154-1.228zM23.076 20h-8.853l-3.333-8h15.187l-3 8zM14 28a2 2 0 1 0 .001-3.999A2 2 0 0 0 14 28zM23.333 28a2 2 0 1 0 0-4 2 2 0 0 0 0 4z" style=""/></symbol><symbol id="tel" viewBox="0 0 32 32"><path  d="M23.2 29.333A20.559 20.559 0 0 1 2.667 8.8 6.133 6.133 0 0 1 8.8 2.667c.344-.003.688.029 1.027.093.327.048.649.129.96.24a1.338 1.338 0 0 1 .867 1l1.827 8a1.34 1.34 0 0 1-.346 1.226c-.173.187-.187.2-1.827 1.053a13.214 13.214 0 0 0 6.493 6.52c.867-1.653.88-1.667 1.067-1.84a1.34 1.34 0 0 1 1.226-.346l8 1.827a1.34 1.34 0 0 1 .96.866 5.752 5.752 0 0 1 .333 1.986 6.133 6.133 0 0 1-6.187 6.04zm-14.4-24a3.482 3.482 0 0 0-3.466 3.466 17.883 17.883 0 0 0 17.867 17.867 3.478 3.478 0 0 0 3.466-3.466v-.44l-6.187-1.427-.387.733c-.6 1.16-1.04 2-2.16 1.547a15.797 15.797 0 0 1-9.573-9.614c-.48-1.04.427-1.52 1.573-2.12l.733-.36-1.427-6.187h-.44z" style="fill:var(--color2)"/></symbol><symbol id="login" viewBox="0 0 32 32"><path  d="M12 2.667h12c1.467 0 2.667 1.2 2.667 2.667v21.333c0 1.467-1.2 2.667-2.667 2.667H12a2.675 2.675 0 0 1-2.667-2.667v-2.666H12v2.666h12V5.334H12v2.667H9.333V5.334c0-1.467 1.2-2.667 2.667-2.667z" style=""/><path d="m13.453 20.787 1.88 1.88L22 16l-6.667-6.667-1.88 1.88 3.44 3.453H4v2.667h12.893l-3.44 3.453z" style="fill:var(--color2)"/></symbol></defs></svg>