<svg xmlns="http://www.w3.org/2000/svg" aria-hidden="true" style="position:absolute;width:0;height:0;overflow:hidden"><defs><symbol id="search" viewBox="0 0 32 32"><path d="m28 25.333-6.872-6.872a9.337 9.337 0 0 0-1.901-12.366 9.337 9.337 0 0 0-12.495.636 9.332 9.332 0 0 0 11.73 14.396l6.872 6.872 2.667-2.667zm-21.333-12c0-3.676 2.991-6.667 6.667-6.667s6.667 2.991 6.667 6.667c0 3.676-2.991 6.667-6.667 6.667s-6.667-2.991-6.667-6.667z" style="fill:var(--color1)"/></symbol><symbol id="shop" viewBox="0 0 32 32"><path d="M29.096 9.908A1.335 1.335 0 0 0 28 9.334H9.777L8.238 5.641a2.659 2.659 0 0 0-2.462-1.64H2.665v2.667h3.111l6.325 15.18a1.33 1.33 0 0 0 1.23.82h10.667c.556 0 1.053-.345 1.249-.864l4-10.667a1.325 1.325 0 0 0-.154-1.228zM23.076 20h-8.853l-3.333-8h15.187l-3 8zM14 28a2 2 0 1 0 .001-3.999A2 2 0 0 0 14 28zM23.333 28a2 2 0 1 0 0-4 2 2 0 0 0 0 4z" style=""/></symbol><symbol id="tel" viewBox="0 0 32 32"><path  d="M23.2 29.333A20.559 20.559 0 0 1 2.667 8.8 6.133 6.133 0 0 1 8.8 2.667c.344-.003.688.029 1.027.093.327.048.649.129.96.24a1.338 1.338 0 0 1 .867 1l1.827 8a1.34 1.34 0 0 1-.346 1.226c-.173.187-.187.2-1.827 1.053a13.214 13.214 0 0 0 6.493 6.52c.867-1.653.88-1.667 1.067-1.84a1.34 1.34 0 0 1 1.226-.346l8 1.827a1.34 1.34 0 0 1 .96.866 5.752 5.752 0 0 1 .333 1.986 6.133 6.133 0 0 1-6.187 6.04zm-14.4-24a3.482 3.482 0 0 0-3.466 3.466 17.883 17.883 0 0 0 17.867 17.867 3.478 3.478 0 0 0 3.466-3.466v-.44l-6.187-1.427-.387.733c-.6 1.16-1.04 2-2.16 1.547a15.797 15.797 0 0 1-9.573-9.614c-.48-1.04.427-1.52 1.573-2.12l.733-.36-1.427-6.187h-.44z" style="fill:var(--color2)"/></symbol><symbol id="login" viewBox="0 0 32 32"><path  d="M12 2.667h12c1.467 0 2.667 1.2 2.667 2.667v21.333c0 1.467-1.2 2.667-2.667 2.667H12a2.675 2.675 0 0 1-2.667-2.667v-2.666H12v2.666h12V5.334H12v2.667H9.333V5.334c0-1.467 1.2-2.667 2.667-2.667z" style=""/><path d="m13.453 20.787 1.88 1.88L22 16l-6.667-6.667-1.88 1.88 3.44 3.453H4v2.667h12.893l-3.44 3.453z" style="fill:var(--color2)"/></symbol>
<symbol id="icon-brand-icon" viewBox="0 0 87 32">
<path d="M0 0h86.808v32h-86.808v-32z" style="" ></path>
</symbol>
<symbol id="brand-logo" viewBox="0 0 156 32">
<path fill="#fff" style="fill: var(--color1)" d="M21.484 0.178c-10.042 1.049-18.174 5.763-20.627 11.957-1.662 4.196-0.539 8.657 3.096 12.295 1.749 1.751 3.572 3.026 6.054 4.236 4.514 2.2 9.807 3.334 15.564 3.334 8.953 0.001 17.077-2.919 21.751-7.82 2.441-2.559 3.558-5.128 3.558-8.18 0-2.322-0.588-4.172-2.013-6.332-0.708-1.073-3.001-3.34-4.316-4.266-4.021-2.834-9.122-4.596-15.136-5.23-1.962-0.207-5.921-0.204-7.931 0.006zM29.795 2.485c2.221 0.269 3.248 0.456 4.922 0.894 6.577 1.722 11.45 5.123 13.231 9.234 0.534 1.232 0.697 2.159 0.645 3.67-0.039 1.153-0.104 1.58-0.354 2.318-1.4 4.14-5.799 7.651-12.025 9.598-6.873 2.149-15.598 2.049-22.193-0.255-8.196-2.863-12.734-8.337-11.432-13.789 1.262-5.284 7.405-9.628 15.955-11.282 3.289-0.636 7.892-0.795 11.251-0.388zM10.742 10.726c-1.292 0.2-2.923 1.363-3.502 2.496-0.869 1.704-0.93 3.896-0.149 5.378 0.661 1.254 1.71 2.107 3.010 2.448 1.89 0.496 3.635 0.006 4.838-1.359 0.254-0.288 0.539-0.673 0.633-0.855 0.158-0.305 0.155-0.343-0.039-0.485-0.191-0.14-0.273-0.084-0.876 0.591-0.894 1-1.494 1.299-2.609 1.299-1.343 0-2.243-0.455-2.871-1.45-1.149-1.823-0.802-5.357 0.649-6.599 0.47-0.403 1.428-0.77 2.007-0.77 0.475 0 1.386 0.326 1.813 0.649 0.419 0.317 0.967 1.145 1.161 1.754 0.109 0.344 0.189 0.424 0.424 0.424 0.283 0 0.288-0.014 0.221-0.594-0.038-0.326-0.103-1.141-0.145-1.809-0.072-1.141-0.092-1.216-0.318-1.216-0.164 0-0.282 0.108-0.369 0.339-0.155 0.41-0.258 0.416-1.121 0.066-0.735-0.299-1.945-0.434-2.758-0.308zM20.456 10.737c-1.285 0.233-2.915 1.459-3.477 2.614-0.757 1.556-0.76 3.506-0.008 5.158 0.297 0.652 1.327 1.736 1.996 2.1 1.151 0.626 2.354 0.784 3.574 0.469 1.776-0.459 3.146-1.856 3.649-3.722 0.197-0.73 0.195-2.214-0.003-2.957-0.374-1.406-1.681-2.926-2.924-3.402-0.73-0.28-2.038-0.401-2.808-0.261zM31.312 10.737c-1.186 0.216-2.535 1.137-3.255 2.223-0.189 0.285-0.452 0.846-0.586 1.248-0.209 0.629-0.237 0.922-0.198 2.109 0.041 1.257 0.076 1.446 0.4 2.142 0.382 0.821 1.29 1.834 1.953 2.176 0.606 0.313 1.813 0.622 2.435 0.622 0.674 0 1.693-0.248 2.309-0.563 0.529-0.27 1.464-1.196 1.757-1.74 0.179-0.333 0.188-0.421 0.060-0.576-0.135-0.163-0.234-0.096-0.909 0.611-0.958 1.005-1.462 1.244-2.624 1.248-1.524 0.004-2.603-0.716-3.15-2.103-0.523-1.327-0.407-3.735 0.242-5.018 0.518-1.025 1.874-1.784 2.961-1.657 1.386 0.162 2.297 0.994 2.838 2.589 0.037 0.109 0.174 0.198 0.305 0.198 0.235 0 0.237-0.021 0.159-1.724-0.044-0.948-0.101-1.763-0.128-1.809-0.098-0.17-0.474-0.079-0.541 0.131-0.149 0.47-0.351 0.506-1.119 0.198-0.807-0.323-2.079-0.457-2.909-0.306zM41.134 10.739c-0.842 0.152-1.731 0.618-2.417 1.267-1.151 1.088-1.624 2.215-1.627 3.873-0.004 2.6 1.333 4.515 3.607 5.166 0.945 0.27 1.679 0.269 2.634-0.004 1.811-0.518 3.143-1.975 3.543-3.876 0.42-1.996-0.099-3.856-1.432-5.127-1.166-1.112-2.73-1.584-4.307-1.299zM51.243 11.11c0.029 0.206 0.128 0.267 0.521 0.319 0.909 0.121 0.872-0.067 0.872 4.515 0 4.593 0.041 4.389-0.893 4.494-0.412 0.046-0.52 0.103-0.52 0.27 0 0.199 0.128 0.211 2.261 0.211s2.261-0.012 2.261-0.211c0-0.162-0.109-0.226-0.469-0.274-0.869-0.116-0.931-0.269-0.983-2.398l-0.045-1.866h1.149c1.069 0 1.168 0.019 1.427 0.278 0.19 0.19 0.278 0.404 0.278 0.678 0 0.352 0.034 0.401 0.283 0.401h0.283v-3.618h-0.283c-0.228 0-0.283 0.056-0.283 0.288 0 0.423-0.292 0.917-0.589 0.996-0.142 0.038-0.704 0.070-1.248 0.071l-0.989 0.002v-3.505h1.568c1.822 0 1.995 0.074 2.407 1.032 0.193 0.449 0.29 0.556 0.48 0.528 0.143-0.020 0.234-0.113 0.229-0.232-0.005-0.109-0.018-0.656-0.028-1.216l-0.019-1.018h-7.705l0.036 0.254zM59.703 11.138c0 0.248 0.049 0.283 0.401 0.283 0.277 0 0.488 0.087 0.683 0.282l0.282 0.282-0.032 4.011c-0.036 4.496-0.002 4.323-0.865 4.438-0.359 0.048-0.468 0.112-0.468 0.274 0 0.199 0.127 0.211 2.205 0.211s2.205-0.012 2.205-0.211c0-0.162-0.108-0.226-0.461-0.273-0.934-0.125-0.896 0.063-0.896-4.457v-4.002l0.278-0.277c0.234-0.234 0.386-0.278 0.967-0.278 0.713 0 1.207 0.177 1.667 0.598l0.254 0.233v7.87l-0.334 0.172c-0.184 0.095-0.489 0.173-0.678 0.173-0.269 0-0.345 0.049-0.345 0.226 0 0.217 0.075 0.226 1.866 0.226s1.866-0.009 1.866-0.226c0-0.162-0.075-0.226-0.266-0.226-0.47 0-0.953-0.23-1.022-0.488-0.037-0.136-0.067-1.637-0.068-3.335l-0.002-3.087 1.136 1.391c0.625 0.765 1.407 1.722 1.739 2.126s1.020 1.244 1.528 1.866c1.652 2.020 1.824 2.205 2.048 2.205 0.214 0 0.22-0.117 0.22-4.393 0-2.916 0.042-4.514 0.125-4.752 0.149-0.427 0.397-0.58 0.942-0.58 0.355 0 0.403-0.034 0.403-0.283v-0.283h-3.731v0.283c0 0.254 0.045 0.283 0.452 0.283 0.302 0 0.528 0.075 0.678 0.226 0.215 0.215 0.226 0.377 0.226 3.245 0 1.902-0.040 2.979-0.107 2.912-0.059-0.059-0.352-0.418-0.65-0.798s-1.306-1.62-2.239-2.756c-0.933-1.136-1.925-2.362-2.205-2.725l-0.509-0.659-7.293-0.011v0.283zM75.307 11.138c0 0.252 0.047 0.283 0.431 0.283 0.237 0 0.529 0.072 0.65 0.16 0.209 0.153 0.221 0.352 0.252 4.223 0.037 4.62 0.058 4.506-0.853 4.628-0.371 0.050-0.479 0.112-0.479 0.277 0 0.205 0.147 0.212 3.929 0.183l3.929-0.030 0.26-0.735c0.335-0.947 0.585-1.73 0.587-1.837 0.001-0.047-0.114-0.085-0.256-0.085-0.192 0-0.385 0.193-0.763 0.763-0.725 1.093-1.007 1.211-2.913 1.213-1.213 0.002-1.523-0.030-1.609-0.167-0.059-0.093-0.108-0.996-0.109-2.007l-0.002-1.837h1.413c1.618 0 1.805 0.087 1.935 0.903 0.061 0.383 0.115 0.454 0.344 0.454h0.271l-0.031-1.837c-0.030-1.752-0.042-1.837-0.257-1.837-0.157 0-0.236 0.087-0.26 0.283-0.061 0.517-0.281 0.922-0.557 1.027-0.15 0.057-0.854 0.104-1.565 0.104h-1.293v-3.505h3.598l0.277 0.329c0.152 0.181 0.31 0.537 0.351 0.792 0.064 0.398 0.114 0.463 0.355 0.463 0.27 0 0.281-0.028 0.281-0.719 0-0.396-0.032-0.955-0.072-1.244l-0.072-0.525h-7.771v0.283zM89.236 11.11c0.029 0.207 0.128 0.267 0.535 0.321 0.936 0.125 0.915 0.021 0.915 4.533 0 2.508-0.043 4.032-0.117 4.171-0.18 0.336-0.442 0.261-0.626-0.18-0.246-0.589-0.552-0.845-1.009-0.845-1.134 0-1.123 1.517 0.015 1.992 1.091 0.456 2.518-0.244 3.113-1.528 0.226-0.487 0.246-0.761 0.309-4.163 0.064-3.468 0.078-3.65 0.294-3.813 0.124-0.094 0.417-0.172 0.65-0.174 0.376-0.003 0.424-0.036 0.424-0.286v-0.283h-4.539l0.036 0.254zM93.852 11.138c0 0.254 0.045 0.283 0.452 0.283 0.302 0 0.528 0.075 0.678 0.226 0.218 0.218 0.226 0.376 0.224 4.269-0.001 2.223-0.040 4.103-0.087 4.177-0.111 0.174-0.642 0.375-0.993 0.375-0.2 0-0.275 0.062-0.275 0.226 0 0.222 0.075 0.226 3.942 0.226h3.942l0.239-0.707c0.131-0.389 0.314-0.91 0.407-1.159 0.246-0.663 0.226-0.848-0.093-0.848-0.205 0-0.332 0.118-0.519 0.481-0.136 0.264-0.383 0.625-0.549 0.802-0.529 0.565-0.857 0.664-2.386 0.722-1.969 0.074-1.862 0.195-1.912-2.164l-0.040-1.875h1.403c1.619 0 1.779 0.066 1.96 0.81 0.1 0.413 0.163 0.49 0.397 0.49h0.277v-1.809c0-1.781-0.004-1.81-0.25-1.845-0.195-0.028-0.266 0.034-0.321 0.283-0.244 1.104-0.351 1.163-2.114 1.165l-1.329 0.002v-3.505h1.79c1.712 0 1.799 0.011 2.021 0.254 0.326 0.357 0.486 0.7 0.486 1.038 0 0.234 0.055 0.29 0.283 0.29h0.283v-2.488h-7.915v0.283zM102.898 11.118c0 0.209 0.086 0.284 0.423 0.367 0.476 0.118 0.542 0.222 1.050 1.66 0.929 2.83 1.179 3.514 1.432 4.196l-0.693-2.133c0.704 1.94 1.424 3.945 1.522 4.24 0.469 1.41 0.645 1.753 0.898 1.753 0.228 0 0.314-0.159 0.735-1.357 0.262-0.746 0.641-1.815 0.842-2.375s0.446-1.261 0.545-1.559c0.099-0.298 0.215-0.501 0.259-0.452s0.221 0.496 0.393 0.993 0.462 1.312 0.642 1.809 0.479 1.336 0.665 1.862c0.375 1.065 0.446 1.172 0.735 1.116 0.144-0.028 0.336-0.432 0.689-1.452 0.268-0.777 0.7-2.024 0.96-2.77s0.744-2.145 1.075-3.109c0.667-1.942 0.853-2.268 1.377-2.427 0.267-0.081 0.358-0.174 0.358-0.367 0-0.258-0.008-0.259-1.583-0.259h-1.583v0.283c0 0.228 0.057 0.283 0.291 0.283 0.459 0 0.727 0.199 0.726 0.541 0 0.169-0.257 1.045-0.57 1.947s-0.756 2.187-0.984 2.857c-0.287 0.845-0.442 1.166-0.507 1.050-0.052-0.092-0.35-0.894-0.663-1.783-1.511-4.284-1.512-4.288-1.127-4.494 0.12-0.064 0.349-0.117 0.509-0.117 0.234 0 0.29-0.055 0.29-0.283v-0.283h-4.071v0.283c0 0.219 0.058 0.283 0.257 0.283 0.559 0 0.876 0.431 1.383 1.878l0.202 0.578-0.318 0.892c0.212-0.772-0.036-0.074-0.281 0.626l-0.45 1.478-0.413 1.211-0.241-0.703c-0.248-0.721-1.168-3.341-1.596-4.543-0.132-0.371-0.24-0.789-0.24-0.929 0-0.274 0.295-0.488 0.671-0.488 0.174 0 0.234-0.072 0.234-0.283v-0.283h-3.845v0.263zM117.032 11.138c0 0.252 0.046 0.283 0.431 0.283 0.236 0 0.529 0.072 0.65 0.16 0.209 0.153 0.221 0.351 0.252 4.099 0.018 2.166 0.005 4.052-0.029 4.191-0.072 0.29-0.594 0.596-1.015 0.596-0.214 0-0.288 0.059-0.288 0.228 0 0.224 0.058 0.227 3.921 0.198l3.921-0.030 0.425-1.238c0.233-0.681 0.399-1.279 0.369-1.329-0.113-0.183-0.491-0.084-0.623 0.164-0.33 0.616-0.967 1.339-1.333 1.513-0.492 0.233-2.845 0.353-3.316 0.169l-0.311-0.122v-3.85h1.406c1.378 0 1.409 0.006 1.636 0.294 0.128 0.162 0.263 0.467 0.303 0.678 0.059 0.311 0.124 0.384 0.346 0.384h0.272l-0.031-1.836c-0.028-1.646-0.052-1.84-0.23-1.874-0.11-0.021-0.218 0.029-0.242 0.112-0.267 0.933-0.348 1.099-0.597 1.212-0.15 0.069-0.857 0.125-1.569 0.125h-1.295v-3.505h3.601l0.239 0.302c0.13 0.166 0.293 0.522 0.361 0.792 0.102 0.406 0.17 0.489 0.392 0.489 0.308 0 0.322-0.126 0.196-1.623l-0.072-0.865h-7.769v0.283zM126.008 11.019c-0.104 0.27 0.059 0.401 0.501 0.405 0.23 0.002 0.519 0.081 0.643 0.174 0.219 0.165 0.226 0.303 0.226 4.303v4.132l-0.267 0.216c-0.163 0.132-0.442 0.216-0.715 0.216-0.366 0-0.442 0.036-0.41 0.198 0.035 0.183 0.33 0.2 3.998 0.228l3.961 0.030 0.192-0.595c0.106-0.327 0.295-0.912 0.419-1.298 0.293-0.905 0.288-1.051-0.027-1.044-0.198 0.004-0.326 0.156-0.573 0.679-0.457 0.964-0.846 1.222-2.075 1.375-0.573 0.071-1.326 0.089-1.768 0.040-0.678-0.074-0.782-0.117-0.876-0.364-0.118-0.309-0.146-6.851-0.033-7.536 0.085-0.511 0.465-0.758 1.165-0.758 0.413 0 0.458-0.028 0.458-0.283v-0.283h-2.378c-1.975 0-2.389 0.028-2.441 0.164zM135.124 11.138c0 0.238 0.053 0.283 0.334 0.283 0.47 0 0.88 0.212 0.955 0.494 0.036 0.132 0.066 1.978 0.067 4.101 0.001 4.384 0.019 4.296-0.876 4.416-0.372 0.050-0.479 0.112-0.479 0.278 0 0.203 0.109 0.212 2.232 0.183 1.948-0.027 2.235-0.054 2.266-0.213 0.027-0.141-0.085-0.196-0.491-0.242-0.862-0.097-0.892-0.171-0.934-2.237l-0.036-1.805h0.393c0.357 0 0.447 0.074 0.988 0.82 1.030 1.416 1.402 1.925 2.069 2.827l0.648 0.876h1.464c1.357 0 1.463-0.015 1.463-0.213 0-0.16-0.133-0.246-0.537-0.346-0.911-0.226-1.292-0.576-2.613-2.404l-1.251-1.73 0.639-0.312c0.804-0.392 1.087-0.658 1.393-1.309 0.341-0.725 0.276-1.731-0.153-2.379-0.73-1.104-1.704-1.36-5.196-1.366l-2.346-0.005v0.283zM144.848 11.085c0 0.126 0.089 0.258 0.198 0.294 0.796 0.257 0.976 0.45 2.263 2.417 0.711 1.088 1.47 2.24 1.687 2.558l0.393 0.579-0.037 1.537c-0.042 1.744-0.094 1.86-0.87 1.964-0.36 0.048-0.468 0.112-0.468 0.274 0 0.199 0.127 0.211 2.205 0.211s2.205-0.012 2.205-0.211c0-0.163-0.11-0.226-0.479-0.276-0.803-0.108-0.879-0.294-0.871-2.155l0.007-1.599 0.55-0.848c0.303-0.466 0.867-1.357 1.254-1.979 0.388-0.622 0.828-1.298 0.979-1.503 0.343-0.463 1.065-0.929 1.442-0.929 0.23 0 0.285-0.056 0.285-0.285v-0.285l-1.894 0.031c-1.794 0.029-1.894 0.043-1.894 0.252 0 0.157 0.102 0.242 0.349 0.293 0.192 0.039 0.408 0.108 0.481 0.153 0.208 0.129 0.149 0.653-0.125 1.109-0.663 1.1-0.95 1.562-1.418 2.276l-0.507 0.773-0.232-0.377c-0.127-0.207-0.6-0.94-1.050-1.629-1.135-1.733-1.174-1.83-0.845-2.097 0.144-0.117 0.409-0.213 0.589-0.213 0.274 0 0.327-0.046 0.327-0.283v-0.283h-2.261c-2.198 0-2.261 0.006-2.261 0.23zM22.305 11.646c1.073 0.401 1.653 1.274 1.956 2.94 0.279 1.536 0.131 3.095-0.401 4.215-0.784 1.65-3.031 2.124-4.257 0.898-1.258-1.258-1.613-4.484-0.715-6.512 0.449-1.016 1.449-1.733 2.45-1.758 0.2-0.005 0.635 0.093 0.967 0.217zM43.274 11.771c1.057 0.512 1.61 1.741 1.697 3.777 0.067 1.559-0.063 2.442-0.49 3.315-0.669 1.37-2.391 1.927-3.758 1.215-1.76-0.916-2.287-5.31-0.885-7.376 0.831-1.225 2.112-1.572 3.436-0.931zM140.022 11.887c0.984 0.507 1.358 1.627 0.866 2.591-0.341 0.67-0.935 1.010-1.905 1.091l-0.806 0.068v-3.877h0.799c0.439 0 0.909 0.057 1.046 0.127zM72.34 24.518c-0.462 0.206-0.59 0.585-0.198 0.585 0.217 0 0.226 0.075 0.226 1.915 0 1.832-0.010 1.918-0.232 1.988-0.128 0.041-0.213 0.133-0.189 0.206 0.028 0.084 0.343 0.132 0.873 0.132s0.845-0.047 0.873-0.132c0.024-0.072-0.060-0.165-0.186-0.205-0.22-0.070-0.231-0.173-0.261-2.356-0.029-2.19-0.040-2.284-0.257-2.302-0.124-0.011-0.417 0.066-0.65 0.17zM77.625 24.54c-0.499 0.232-0.592 0.486-0.198 0.542 0.215 0.030 0.254 0.106 0.254 0.481v0.444h-0.607c-0.51 0-0.656 0.049-0.92 0.311-0.938 0.929-0.808 2.526 0.246 3.026 0.335 0.159 0.485 0.173 0.811 0.073 0.266-0.082 0.445-0.085 0.535-0.011 0.183 0.152 1.223-0.259 1.272-0.502 0.024-0.119-0.041-0.183-0.185-0.183-0.319 0-0.357-0.266-0.359-2.459s0.029-2.131-0.85-1.722zM85.263 24.474c-0.322 0.387 0.122 1.043 0.532 0.786 0.403-0.253 0.258-0.949-0.198-0.949-0.109 0-0.26 0.073-0.334 0.163zM98.261 24.481c-0.155 0.089-0.372 0.163-0.481 0.166-0.121 0.002-0.198 0.092-0.198 0.23 0 0.166 0.075 0.226 0.283 0.226h0.283v1.976c0 1.926 0.006 1.98 0.254 2.138 0.374 0.237 1.103 0.308 1.55 0.151 0.229-0.080 0.545-0.341 0.763-0.627 0.316-0.415 0.372-0.583 0.372-1.108 0-0.68-0.203-1.177-0.59-1.449-0.287-0.201-1.015-0.233-1.34-0.059-0.208 0.111-0.219 0.071-0.219-0.848 0-1.058-0.072-1.142-0.678-0.795zM108.016 24.611c-0.703 0.249-1.321 1.001-1.492 1.818-0.409 1.947 1.096 3.464 2.945 2.967 0.759-0.204 1.75-1.354 1.167-1.354-0.097 0-0.299 0.146-0.449 0.324-0.159 0.189-0.483 0.383-0.777 0.465-0.444 0.124-0.556 0.116-0.934-0.069-0.667-0.327-0.942-0.832-0.939-1.726 0.004-1.317 0.541-2.047 1.507-2.047 0.437 0 0.901 0.377 1.232 1 0.108 0.204 0.248 0.339 0.311 0.301 0.128-0.079 0.148-0.797 0.041-1.442-0.070-0.426-0.3-0.568-0.419-0.258-0.056 0.146-0.12 0.146-0.535 0-0.581-0.205-1.034-0.199-1.657 0.021zM112.649 24.575c-0.547 0.198-1.129 0.706-1.384 1.206-0.306 0.6-0.309 1.767-0.006 2.361 0.867 1.7 3.201 1.785 4.158 0.151 0.271-0.461 0.313-0.651 0.306-1.393-0.006-0.687-0.059-0.942-0.265-1.274-0.607-0.982-1.784-1.423-2.809-1.052zM117.683 24.585c-0.634 0.226-0.958 0.473-1.301 0.993-0.279 0.421-0.311 0.57-0.311 1.447 0 0.871 0.033 1.027 0.303 1.436 0.365 0.551 0.884 0.887 1.538 0.994 0.562 0.092 1.447-0.094 1.779-0.373 0.289-0.244 0.734-0.814 0.734-0.941 0-0.217-0.43-0.077-0.733 0.239-0.449 0.469-0.962 0.622-1.501 0.449-0.564-0.182-0.704-0.306-0.949-0.842-0.579-1.273 0.128-2.996 1.229-2.996 0.554 0 0.986 0.296 1.274 0.872 0.268 0.538 0.513 0.591 0.502 0.108-0.035-1.502-0.043-1.545-0.276-1.545-0.126 0-0.226 0.075-0.226 0.17s-0.019 0.17-0.042 0.17c-0.024 0-0.259-0.076-0.524-0.17-0.582-0.206-0.94-0.208-1.497-0.009zM122.243 24.555c-1.324 0.381-2.055 2.016-1.52 3.4 0.221 0.569 0.512 0.916 1.049 1.248 0.571 0.353 1.724 0.341 2.314-0.023 0.918-0.567 1.307-1.506 1.149-2.771-0.061-0.494-0.163-0.712-0.522-1.12-0.656-0.745-1.53-1.005-2.47-0.735zM50.678 24.735c0.022 0.117 0.16 0.212 0.338 0.233l0.3 0.035 0.038 1.718c0.033 1.46 0.071 1.765 0.253 2.035 0.335 0.494 0.813 0.688 1.712 0.691 0.659 0.003 0.86-0.043 1.172-0.265 0.573-0.408 0.69-0.82 0.69-2.427 0-0.774 0.031-1.488 0.069-1.587s0.19-0.179 0.339-0.179c0.197 0 0.271-0.063 0.271-0.231 0-0.216-0.058-0.229-0.932-0.198-0.766 0.027-0.938 0.067-0.968 0.223-0.026 0.135 0.055 0.2 0.281 0.226l0.318 0.036 0.030 1.413c0.036 1.726-0.1 2.112-0.835 2.366-0.392 0.135-0.524 0.137-0.829 0.011-0.488-0.202-0.586-0.508-0.655-2.046-0.063-1.406 0.031-1.801 0.427-1.801 0.147 0 0.222-0.077 0.222-0.226 0-0.211-0.075-0.226-1.139-0.226-1.024 0-1.135 0.020-1.102 0.198zM114.023 25.226c0.432 0.34 0.634 0.919 0.634 1.818 0 0.865-0.164 1.297-0.634 1.667-0.766 0.601-1.594 0.1-1.853-1.121-0.378-1.782 0.755-3.228 1.853-2.364zM123.633 25.244c0.802 0.724 0.829 2.656 0.046 3.386-0.554 0.518-1.461 0.352-1.779-0.324-0.211-0.451-0.288-1.844-0.128-2.329 0.306-0.93 1.236-1.296 1.86-0.732zM56.057 26.185c-0.365 0.198-0.405 0.45-0.085 0.533 0.205 0.054 0.226 0.154 0.226 1.086 0 0.905-0.027 1.044-0.226 1.169-0.124 0.078-0.226 0.207-0.226 0.287 0 0.198 3.521 0.15 3.587-0.049 0.024-0.072-0.061-0.165-0.189-0.206-0.212-0.067-0.232-0.164-0.233-1.112-0-1.407-0.194-1.815-0.885-1.865-0.309-0.022-0.591 0.031-0.763 0.144-0.242 0.158-0.273 0.159-0.273 0.007 0-0.224-0.516-0.221-0.933 0.006zM59.138 26.233c0 0.151 0.075 0.226 0.226 0.226 0.212 0 0.226 0.075 0.226 1.172 0 0.998 0.033 1.214 0.224 1.457 0.292 0.372 0.7 0.466 1.169 0.27 0.333-0.139 0.391-0.136 0.49 0.020 0.101 0.16 0.169 0.155 0.669-0.050 0.582-0.239 0.822-0.607 0.396-0.607-0.224 0-0.234-0.059-0.234-1.357v-1.357h-0.678c-0.603 0-0.678 0.025-0.678 0.226 0 0.151 0.075 0.226 0.226 0.226 0.209 0 0.226 0.075 0.226 0.995 0 1.058-0.087 1.266-0.528 1.266-0.388 0-0.49-0.328-0.49-1.576v-1.138h-0.622c-0.547 0-0.622 0.027-0.622 0.226zM63.115 26.269c-0.168 0.179-0.246 0.405-0.246 0.717 0 0.505 0.099 0.623 0.92 1.091 0.599 0.341 0.767 0.628 0.489 0.831-0.282 0.206-0.646 0.020-0.881-0.451-0.323-0.647-0.528-0.544-0.528 0.263v0.678l0.537 0.021c1.132 0.044 1.496-0.073 1.712-0.547 0.309-0.679 0.085-1.080-0.892-1.598-0.723-0.383-0.863-0.759-0.283-0.759 0.272 0 0.373 0.072 0.509 0.365 0.095 0.205 0.256 0.366 0.368 0.367 0.165 0.002 0.198-0.102 0.198-0.619v-0.622h-0.828c-0.72 0-0.861 0.034-1.074 0.262zM65.244 26.233c0 0.151 0.075 0.226 0.226 0.226 0.212 0 0.226 0.075 0.226 1.172 0 0.998 0.033 1.214 0.224 1.457 0.294 0.374 0.7 0.466 1.18 0.265 0.335-0.14 0.397-0.14 0.45-0.002 0.084 0.218 0.261 0.197 0.861-0.098 0.485-0.239 0.519-0.241 0.707-0.053 0.223 0.224 0.881 0.264 1.234 0.074 0.167-0.089 0.265-0.089 0.354 0 0.209 0.209 0.704 0.138 0.963-0.138 0.314-0.334 0.331-0.692 0.030-0.613-0.199 0.052-0.219-0.026-0.254-0.993-0.050-1.362-0.175-1.525-1.172-1.525-0.539 0-0.771 0.054-1 0.234-0.561 0.441-0.286 1.308 0.327 1.028 0.207-0.094 0.279-0.215 0.279-0.469 0-0.285 0.045-0.342 0.271-0.342 0.256 0 0.408 0.185 0.408 0.497 0 0.077-0.28 0.256-0.622 0.397-0.681 0.282-1.074 0.684-1.074 1.099 0 0.192-0.064 0.267-0.226 0.267-0.214 0-0.226-0.075-0.226-1.357v-1.357h-0.678c-0.603 0-0.678 0.025-0.678 0.226 0 0.151 0.075 0.226 0.226 0.226 0.209 0 0.226 0.075 0.226 0.995 0 1.058-0.087 1.266-0.528 1.266-0.388 0-0.49-0.328-0.49-1.576v-1.138h-0.622c-0.546 0-0.622 0.027-0.622 0.226zM79.51 26.329c-0.19 0.177-0.376 0.47-0.415 0.65s-0.090 0.427-0.115 0.549c-0.075 0.364 0.169 1.232 0.421 1.5 0.525 0.558 1.582 0.569 2.051 0.021 0.311-0.363 0.468-0.884 0.314-1.038-0.094-0.094-0.227-0.018-0.51 0.291-0.44 0.48-0.422 0.475-0.876 0.241-0.278-0.144-0.664-0.728-0.664-1.007 0-0.033 0.49-0.060 1.089-0.060h1.089l-0.063-0.47c-0.091-0.681-0.509-0.991-1.34-0.996-0.549-0.003-0.687 0.041-0.983 0.318zM82.326 26.305c-0.244 0.31-0.306 0.883-0.127 1.166 0.057 0.090 0.369 0.32 0.693 0.51 0.746 0.438 0.921 0.692 0.626 0.912-0.28 0.208-0.577 0.051-0.881-0.463-0.356-0.603-0.545-0.507-0.545 0.276v0.663l0.703 0.064c1.15 0.104 1.672-0.236 1.672-1.089 0-0.45-0.325-0.785-1.099-1.134-0.676-0.305-0.789-0.749-0.191-0.749 0.2 0 0.346 0.113 0.513 0.396 0.354 0.6 0.55 0.519 0.55-0.226v-0.622h-0.84c-0.773 0-0.859 0.024-1.074 0.298zM84.945 26.206c-0.407 0.202-0.427 0.404-0.045 0.46 0.233 0.034 0.246 0.093 0.246 1.151 0 1.016-0.020 1.122-0.226 1.187-0.124 0.039-0.226 0.147-0.226 0.238 0 0.135 0.163 0.161 0.867 0.134 0.858-0.033 1.213-0.215 0.722-0.37-0.219-0.069-0.232-0.16-0.232-1.536v-1.462l-0.368 0.007c-0.202 0.004-0.534 0.090-0.737 0.191zM87.187 26.322c-0.274 0.274-0.346 0.443-0.346 0.811 0 0.256 0.078 0.584 0.173 0.729 0.157 0.239 0.154 0.296-0.028 0.615-0.157 0.275-0.173 0.396-0.074 0.557 0.101 0.163 0.083 0.26-0.090 0.474-0.322 0.398-0.237 0.922 0.182 1.122 0.475 0.227 1.179 0.282 1.723 0.136 0.6-0.162 1.168-0.683 1.168-1.073v-0.294h1.746c1.229 0 1.771-0.040 1.829-0.135 0.046-0.074 0.022-0.155-0.052-0.18-0.39-0.13-0.47-0.383-0.47-1.478 0-1.346-0.128-1.6-0.805-1.6-0.249 0-0.552 0.053-0.672 0.117-0.151 0.081-0.219 0.081-0.219 0 0-0.174-0.642-0.142-1.014 0.051-0.179 0.092-0.341 0.121-0.362 0.063s-0.556-0.14-1.189-0.184l-1.152-0.079-0.346 0.346zM93.854 26.23c-0.577 0.577-0.36 1.238 0.592 1.8 0.485 0.286 0.649 0.448 0.649 0.638 0 0.577-0.743 0.375-1.034-0.281-0.251-0.567-0.436-0.431-0.436 0.32v0.664l0.65 0.060c0.764 0.070 1.349-0.151 1.599-0.605 0.317-0.574-0.016-1.102-1.011-1.604-0.6-0.302-0.699-0.684-0.194-0.742 0.258-0.030 0.341 0.031 0.501 0.367 0.291 0.611 0.49 0.522 0.49-0.219v-0.622h-0.792c-0.637 0-0.835 0.044-1.015 0.223zM101.088 26.233c0 0.127 0.075 0.226 0.172 0.226 0.107 0 0.408 0.492 0.802 1.312 0.617 1.284 0.627 1.321 0.473 1.724-0.144 0.378-0.195 0.412-0.605 0.413-0.553 0.001-0.73 0.108-0.73 0.439 0 0.317 0.442 0.577 0.821 0.482 0.493-0.124 0.83-0.499 1.15-1.281 0.979-2.396 1.256-3.006 1.388-3.057 0.080-0.031 0.146-0.152 0.146-0.27 0-0.184-0.087-0.214-0.622-0.214-0.538 0-0.622 0.029-0.622 0.217 0 0.119 0.062 0.237 0.138 0.263 0.1 0.033 0.061 0.239-0.138 0.742-0.152 0.383-0.312 0.659-0.355 0.614-0.121-0.127-0.663-1.178-0.663-1.286 0-0.053 0.076-0.096 0.17-0.096s0.17-0.101 0.17-0.226c0-0.206-0.075-0.226-0.848-0.226s-0.848 0.020-0.848 0.226zM88.314 26.461c0.268 0.144 0.406 0.83 0.24 1.195-0.151 0.33-0.528 0.361-0.691 0.055-0.159-0.298-0.148-1.062 0.019-1.229 0.164-0.164 0.165-0.164 0.432-0.021zM77.506 26.711c0.12 0.171 0.176 0.512 0.176 1.070 0 0.712-0.031 0.835-0.234 0.944-0.483 0.259-1.010-0.371-1.010-1.206 0-0.894 0.658-1.392 1.068-0.808zM80.67 26.637c0.297 0.297 0.204 0.388-0.402 0.388-0.535 0-0.568-0.015-0.424-0.198 0.326-0.416 0.548-0.467 0.826-0.19zM57.938 26.864c0.038 0.098 0.069 0.606 0.069 1.129 0 0.909-0.012 0.953-0.272 1.018-0.15 0.038-0.379 0.011-0.509-0.058-0.209-0.112-0.237-0.23-0.237-0.99 0-0.645 0.047-0.916 0.187-1.070 0.23-0.254 0.669-0.27 0.762-0.028zM90.346 27.799c0 1.035-0.017 1.121-0.246 1.223-0.19 0.085-0.294 0.063-0.452-0.096-0.134-0.134-0.374-0.206-0.686-0.207-0.664-0.002-1.329-0.122-1.329-0.24 0-0.054 0.26-0.098 0.577-0.098 0.508 0 0.624-0.047 0.973-0.396 0.345-0.345 0.391-0.454 0.353-0.848l-0.043-0.452h0.854v1.113zM92.087 26.864c0.038 0.098 0.069 0.604 0.069 1.123 0 0.845-0.024 0.952-0.226 1.016-0.124 0.039-0.328 0.039-0.452 0-0.203-0.065-0.226-0.171-0.226-1.059 0-0.617 0.051-1.038 0.136-1.123 0.194-0.194 0.619-0.168 0.7 0.043zM99.949 26.983c0.341 0.434 0.323 1.283-0.037 1.701-0.238 0.277-0.31 0.301-0.594 0.202-0.313-0.11-0.324-0.139-0.356-0.999-0.028-0.744-0.001-0.911 0.17-1.040 0.308-0.234 0.558-0.192 0.817 0.137zM70.558 28.085c0 0.422-0.219 0.675-0.532 0.616-0.302-0.058-0.313-0.487-0.019-0.761 0.373-0.347 0.551-0.3 0.551 0.145zM89.298 29.557c0.136 0.136-0.142 0.448-0.487 0.546-0.441 0.125-1.289-0.001-1.367-0.203-0.034-0.089-0.030-0.245 0.009-0.346 0.059-0.155 0.207-0.176 0.919-0.13 0.466 0.030 0.883 0.090 0.927 0.133z"></path>
</symbol>



</defs></svg>